<?xml version="1.0" standalone="no"?>
<!DOCTYPE svg PUBLIC "-//W3C//DTD SVG 20010904//EN"
 "http://www.w3.org/TR/2001/REC-SVG-20010904/DTD/svg10.dtd">
<svg version="1.0" xmlns="http://www.w3.org/2000/svg"
 width="764.000000pt" height="764.000000pt" viewBox="0 0 764.000000 764.000000"
 preserveAspectRatio="xMidYMid meet">
<metadata>
Created by potrace 1.14, written by Peter Selinger 2001-2017
</metadata>
<g transform="translate(0.000000,764.000000) scale(0.100000,-0.100000)"
fill="#000000" stroke="none">
<path d="M0 3820 l0 -3820 620 0 620 0 4 22 c30 138 91 363 121 443 20 55 68
164 106 242 l69 142 0 88 c0 203 54 489 164 867 20 69 23 92 15 121 -6 20 -16
35 -25 35 -10 0 -6 8 12 24 l28 23 -38 7 c-36 7 -38 9 -32 36 4 21 1 32 -12
40 -16 9 -16 11 3 26 19 14 19 16 2 25 -16 9 -16 13 -5 27 23 29 37 60 31 66
-4 3 -26 6 -50 6 -41 0 -52 8 -36 24 16 15 10 65 -8 82 -13 12 -16 21 -9 29
13 16 2 45 -16 45 -8 0 -14 5 -14 10 0 6 8 10 18 10 16 1 16 1 0 11 -9 5 -15
16 -12 23 3 8 -5 21 -18 30 -19 14 -21 19 -10 36 15 25 16 23 -8 50 -11 13
-20 37 -20 56 0 25 -8 39 -37 64 -29 23 -35 33 -24 39 17 11 0 45 -30 62 -21
11 -21 11 7 30 34 22 41 65 13 80 -16 8 -17 13 -6 30 10 16 9 21 -3 29 -8 5
-25 10 -37 10 -28 0 -30 16 -3 30 26 14 26 30 0 37 -27 7 -25 20 5 27 30 8 33
26 4 33 -14 4 -17 8 -8 13 21 14 2 40 -30 40 -36 0 -50 18 -28 35 10 7 17 21
17 32 0 10 6 25 12 31 10 10 10 17 1 31 -9 14 -9 21 0 30 8 8 9 14 1 19 -6 4
-14 20 -18 35 -3 15 -17 33 -30 39 -26 11 -27 29 -6 68 10 18 9 22 -9 27 -14
3 -21 13 -21 28 0 12 -7 28 -15 35 -8 7 -15 17 -15 23 0 6 -10 33 -22 59 -17
39 -28 51 -51 55 -24 5 -26 8 -13 15 20 11 21 34 1 46 -14 7 -13 11 5 27 11
10 20 24 20 31 0 7 19 19 42 26 57 16 175 133 149 147 -14 8 -12 11 11 20 35
13 76 53 60 59 -19 6 -14 28 11 45 l22 15 -30 7 c-53 12 -57 15 -51 31 4 9 1
23 -6 31 -10 12 -9 17 5 24 27 16 20 27 -22 34 -22 4 -42 13 -45 21 -3 8 -13
14 -23 14 -15 0 -15 2 3 15 18 14 18 14 -8 15 -15 0 -30 5 -33 10 -3 6 5 10
19 10 15 0 30 8 36 20 6 11 17 20 24 20 8 0 27 7 42 15 16 8 41 15 57 15 15 0
27 3 27 8 0 4 24 6 52 4 41 -2 50 0 38 8 -12 9 -5 10 29 5 38 -5 42 -4 32 9
-8 9 -8 16 -2 20 6 4 7 14 4 23 -5 13 -1 15 19 11 21 -4 26 -1 23 14 -2 10 -7
23 -11 29 -5 8 -1 8 14 0 36 -19 87 -13 116 14 18 17 39 25 62 25 22 0 33 4
31 13 -1 8 14 13 46 15 l49 3 -16 25 c-10 14 -12 24 -6 24 13 0 45 29 39 35
-10 9 -149 75 -159 75 -6 0 -8 5 -5 10 3 6 -3 10 -15 10 -12 0 -19 4 -16 8 3
4 -16 19 -41 33 -25 13 -49 33 -53 44 -6 15 -24 24 -69 33 -70 15 -72 32 -4
32 35 0 44 3 40 14 -4 9 1 16 10 18 17 3 14 5 -72 43 -22 10 -35 20 -28 22 6
2 25 -3 41 -11 24 -12 32 -13 40 -3 6 7 7 18 2 26 -5 9 -3 22 3 33 10 15 9 21
-3 28 -28 18 0 22 40 6 22 -9 40 -11 40 -6 0 6 -5 10 -11 10 -5 0 -8 4 -5 9 3
5 -6 12 -21 16 l-27 6 30 20 c16 11 37 18 47 15 9 -2 15 0 11 5 -3 5 0 9 6 9
7 0 8 6 1 18 -8 15 -3 17 55 17 35 -1 64 1 64 4 0 2 -8 13 -17 24 -16 18 -16
20 -1 14 13 -5 16 1 14 31 -1 20 -5 43 -10 50 -15 25 -15 101 0 117 8 8 18 37
21 66 3 29 12 53 19 56 8 3 14 20 14 38 0 18 12 54 26 80 28 49 63 71 131 82
18 3 33 10 33 16 0 7 4 7 12 -1 16 -16 58 -16 58 0 0 9 3 9 12 0 14 -14 41 41
63 132 49 196 71 290 105 456 21 102 52 250 69 330 56 268 66 322 111 615 23
146 36 205 49 220 10 11 21 28 24 38 6 16 -61 17 -1308 17 l-1315 0 0 -3820z
m1620 1320 c0 -5 -2 -10 -4 -10 -3 0 -8 5 -11 10 -3 6 -1 10 4 10 6 0 11 -4
11 -10z"/>
<path d="M3464 7593 c16 -132 18 -175 7 -182 -9 -6 -9 -15 -1 -36 6 -16 12
-49 15 -74 2 -25 6 -58 10 -73 9 -35 -4 -160 -15 -153 -5 3 -11 23 -15 45 -4
22 -15 50 -26 64 -19 24 -19 26 -2 61 14 29 15 40 5 55 -17 27 -15 35 5 19 15
-13 16 -12 9 11 -5 14 -8 37 -8 53 1 16 -4 27 -12 27 -14 0 -46 -102 -46 -147
0 -16 -9 -61 -20 -102 -11 -41 -20 -87 -20 -102 0 -40 -12 -42 -66 -14 -87 46
-165 27 -184 -46 -12 -43 -3 -66 51 -139 14 -19 47 -73 73 -119 l47 -84 -22
-56 c-12 -31 -51 -126 -85 -211 -175 -431 -182 -457 -146 -512 9 -14 30 -37
46 -49 l28 -22 18 23 18 23 35 -21 36 -21 19 52 c11 29 23 68 26 87 11 51 74
316 91 380 8 30 19 73 24 95 13 56 65 253 96 360 14 50 31 109 37 133 7 23 17
41 23 39 15 -5 54 -88 55 -118 0 -31 35 -79 57 -79 25 0 123 80 123 100 0 18
-26 30 -66 30 -33 0 -114 39 -114 55 0 7 -5 15 -11 17 -21 7 -12 511 12 598
19 75 16 80 -52 80 l-61 0 6 -47z"/>
<path d="M3953 7548 c-12 -51 -25 -124 -28 -162 -5 -46 -10 -64 -16 -55 -5 8
-9 26 -9 40 0 41 -57 96 -110 108 -24 5 -47 6 -50 2 -3 -4 -13 -10 -23 -14
-15 -5 -16 -10 -7 -27 12 -23 -1 -32 -48 -34 -21 -1 -27 -7 -33 -33 -3 -18
-12 -39 -18 -47 -6 -7 -11 -40 -12 -72 0 -85 -2 -103 -11 -98 -4 3 -8 -9 -8
-27 0 -31 0 -31 18 -11 10 12 35 23 63 26 57 8 92 -16 121 -83 25 -60 66 -103
90 -95 16 5 18 -1 18 -50 0 -54 14 -75 26 -38 3 9 10 26 15 37 5 11 13 32 19
48 8 23 15 27 50 27 22 0 49 5 59 12 15 9 24 8 46 -6 27 -18 27 -17 20 5 -4
12 -9 56 -10 98 -2 42 -8 92 -14 111 -6 19 -11 59 -11 88 0 41 4 54 18 58 129
43 148 70 75 108 -45 23 -43 50 5 72 52 24 82 53 82 81 l0 23 -148 0 -148 0
-21 -92z m-169 -94 c9 -3 16 -10 16 -16 0 -14 -63 -5 -68 10 -4 13 25 16 52 6z"/>
<path d="M3815 7521 c-3 -6 -1 -12 4 -12 15 -2 23 -4 43 -13 9 -4 25 -6 35 -3
13 4 12 5 -7 7 -24 2 -24 3 5 10 l30 8 -37 1 c-20 0 -43 4 -51 7 -8 3 -18 1
-22 -5z"/>
<path d="M4381 7316 c-7 -8 -28 -17 -49 -21 -74 -14 -121 -64 -74 -79 21 -7
72 -86 72 -113 0 -10 -5 -24 -12 -31 -9 -9 -8 -16 5 -30 22 -24 21 -43 -1 -68
-10 -10 -21 -27 -25 -36 -3 -10 -13 -18 -21 -18 -9 0 -13 6 -10 13 6 17 -20
41 -38 35 -7 -3 -13 -20 -14 -38 -1 -19 -7 -36 -13 -38 -14 -5 -15 -59 -1 -67
6 -3 10 -15 10 -26 0 -30 14 -23 78 41 33 33 65 60 70 60 5 0 26 15 46 33 30
26 38 43 47 91 6 33 24 93 40 133 34 86 36 112 10 142 l-19 22 -13 -31 c-18
-39 -27 -38 -45 5 -16 38 -25 43 -43 21z"/>
<path d="M5141 7174 c0 -11 3 -14 6 -6 3 7 2 16 -1 19 -3 4 -6 -2 -5 -13z"/>
<path d="M5150 7121 c0 -11 -5 -23 -10 -26 -6 -4 -10 -52 -10 -113 0 -59 -3
-136 -6 -172 -3 -36 -7 -110 -9 -165 -2 -55 -9 -221 -16 -370 -9 -211 -9 -282
0 -327 7 -32 16 -60 20 -63 17 -10 31 300 34 768 2 268 2 487 0 487 -2 0 -3
-9 -3 -19z"/>
<path d="M3845 6648 c-9 -43 -24 -92 -101 -328 -35 -107 -66 -211 -69 -230 -7
-42 10 -159 31 -217 20 -51 36 -57 187 -66 50 -3 57 -2 57 14 0 27 -28 106
-59 169 -15 30 -31 70 -34 88 -7 35 -3 40 92 125 17 16 31 34 31 41 0 7 11 26
25 42 29 34 31 46 8 80 -9 14 -31 58 -48 97 -58 132 -100 217 -107 217 -3 0
-9 -15 -13 -32z"/>
<path d="M2975 5890 c-3 -5 -1 -10 4 -10 6 0 11 5 11 10 0 6 -2 10 -4 10 -3 0
-8 -4 -11 -10z"/>
<path d="M5796 5483 c-3 -3 -6 -15 -6 -25 0 -11 -11 -23 -26 -29 -15 -5 -40
-21 -56 -34 -16 -14 -39 -25 -51 -25 -12 0 -28 -9 -35 -20 -9 -15 -17 -18 -34
-11 -26 10 -32 11 -51 11 -8 0 -22 18 -32 40 -21 47 -33 49 -74 14 -25 -21
-31 -33 -29 -60 2 -30 5 -34 29 -34 31 0 43 -13 43 -49 1 -25 10 -30 74 -47
22 -6 38 -53 24 -72 -7 -9 -15 -24 -18 -32 -3 -8 -10 -23 -15 -32 -7 -15 -5
-18 12 -18 11 0 17 5 14 10 -3 6 -1 10 5 10 7 0 10 -7 7 -15 -4 -8 -2 -17 3
-20 5 -3 7 -12 4 -19 -7 -17 11 -30 70 -50 59 -19 125 -21 128 -3 0 6 2 17 2
23 1 6 13 27 28 46 28 36 58 109 58 140 0 10 12 26 28 35 42 27 59 53 58 87
-1 29 -3 31 -38 28 -42 -3 -47 6 -24 50 17 31 3 66 -32 84 -12 6 -20 13 -17
15 2 3 -6 6 -19 7 -13 1 -26 -1 -30 -5z"/>
<path d="M2416 5350 c3 -52 -4 -61 -26 -35 -7 8 -26 15 -43 15 -18 0 -37 8
-48 21 l-18 20 -11 -22 c-8 -14 -9 -24 -2 -28 11 -7 9 -75 -3 -104 -5 -12 -1
-25 10 -37 22 -24 50 -27 41 -4 -8 21 42 66 66 59 13 -5 21 1 30 19 14 32 22
33 36 1 12 -26 26 -32 37 -16 3 5 -2 16 -10 24 -22 23 -19 68 5 74 25 7 26 23
1 30 -11 3 -22 11 -25 19 -3 8 -14 14 -24 14 -15 0 -18 -7 -16 -50z"/>
<path d="M4070 5340 c0 -11 5 -20 10 -20 6 0 10 9 10 20 0 11 -4 20 -10 20 -5
0 -10 -9 -10 -20z"/>
<path d="M4232 5344 c-12 -8 -22 -24 -22 -34 0 -28 -36 -58 -64 -53 -19 4 -24
-2 -35 -39 -8 -24 -13 -69 -12 -101 1 -44 -2 -59 -14 -64 -30 -11 -40 15 -40
109 0 58 -4 93 -11 95 -25 8 -26 -85 -2 -149 15 -39 2 -81 -22 -75 -21 5 -60
-26 -60 -48 0 -22 -21 -18 -27 5 -8 29 -22 24 -38 -12 l-13 -33 -7 30 c-13 56
-16 65 -26 65 -5 0 -12 -14 -16 -30 -3 -17 -10 -29 -16 -27 -16 5 -57 86 -57
111 0 27 -15 50 -27 43 -6 -4 -15 11 -22 33 -6 21 -17 45 -24 52 -7 7 -20 25
-30 41 -14 21 -22 25 -35 19 -36 -19 -83 -22 -112 -7 -37 19 -35 19 -60 -7
-33 -35 -26 -69 22 -106 23 -18 46 -32 51 -32 5 0 6 -13 2 -30 -6 -25 -4 -30
13 -30 11 0 25 7 32 15 7 8 29 15 49 15 20 0 50 4 67 9 29 8 31 7 43 -34 7
-23 21 -49 32 -58 20 -18 27 -67 9 -67 -6 0 -15 12 -20 26 -9 22 -13 24 -25
14 -20 -16 -19 -37 1 -48 15 -8 15 -11 1 -33 -9 -13 -18 -41 -20 -62 -5 -42
-7 -45 -38 -61 -12 -6 -27 -19 -33 -29 -24 -37 53 -115 91 -91 12 8 24 7 42
-2 20 -10 35 -10 69 -1 40 11 45 10 61 -11 10 -14 23 -21 33 -17 11 4 17 -1
22 -19 8 -31 17 -32 41 -6 15 16 21 18 33 8 12 -10 18 -7 36 15 25 31 33 33
57 11 17 -15 18 -15 24 7 7 29 1 100 -15 172 -12 52 -12 54 19 98 38 54 46
114 16 114 -33 0 -30 39 7 79 33 37 63 46 71 24 3 -10 8 -10 18 1 11 10 11 15
2 18 -7 3 -13 14 -13 25 0 16 5 19 22 15 34 -9 117 92 117 143 l1 25 -18 -22
c-15 -20 -19 -20 -36 -7 -26 19 -38 18 -35 -3 3 -25 -22 -73 -38 -73 -17 0
-16 10 2 34 16 22 20 52 7 60 -5 3 -18 -2 -30 -10z"/>
<path d="M4422 5325 c-7 -14 -12 -33 -12 -43 0 -14 2 -14 13 -2 7 8 19 27 25
43 16 36 -10 38 -26 2z"/>
<path d="M3182 5258 c6 -18 28 -21 28 -4 0 9 -7 16 -16 16 -9 0 -14 -5 -12
-12z"/>
<path d="M3292 5248 c5 -15 28 -18 29 -3 0 6 -7 12 -17 13 -10 3 -15 -1 -12
-10z"/>
<path d="M4517 5253 c-4 -3 -7 -15 -7 -25 0 -26 24 -17 28 10 3 21 -8 29 -21
15z"/>
<path d="M3880 5186 c0 -14 5 -26 10 -26 6 0 10 9 10 19 0 11 -4 23 -10 26 -6
4 -10 -5 -10 -19z"/>
<path d="M1694 5045 c8 -8 23 -15 33 -15 14 1 13 4 -7 15 -33 19 -45 19 -26 0z"/>
<path d="M5784 4898 c-7 -12 21 -38 42 -38 6 0 17 7 24 15 10 12 8 16 -15 25
-34 13 -42 13 -51 -2z"/>
<path d="M5881 4884 c0 -11 3 -14 6 -6 3 7 2 16 -1 19 -3 4 -6 -2 -5 -13z"/>
<path d="M4988 4883 c7 -3 16 -2 19 1 4 3 -2 6 -13 5 -11 0 -14 -3 -6 -6z"/>
<path d="M4895 4871 c-9 -15 27 -29 55 -21 l25 6 -22 12 c-26 14 -50 15 -58 3z"/>
<path d="M4826 4853 c-12 -12 -5 -23 14 -23 11 0 20 4 20 9 0 11 -26 22 -34
14z"/>
<path d="M4703 4807 c-29 -12 -53 -25 -53 -29 0 -14 15 -9 71 22 63 35 55 38
-18 7z"/>
<path d="M5820 4810 c0 -5 5 -10 10 -10 6 0 10 5 10 10 0 6 -4 10 -10 10 -5 0
-10 -4 -10 -10z"/>
<path d="M5020 4801 c0 -13 27 -21 68 -20 l37 1 -35 13 c-42 16 -70 18 -70 6z"/>
<path d="M5000 4771 c14 -4 24 -14 22 -21 -2 -8 3 -10 13 -7 20 8 19 -10 -1
-21 -21 -12 -10 -32 17 -32 24 0 25 -26 2 -39 -10 -5 -14 -13 -10 -17 4 -4 13
-2 19 4 7 7 23 12 36 12 13 0 32 5 43 10 21 12 26 40 7 40 -8 1 -6 6 5 14 10
8 15 20 11 29 -7 18 -42 29 -47 14 -2 -7 -20 -5 -54 6 -29 9 -60 17 -70 16
-12 -1 -10 -3 7 -8z"/>
<path d="M5265 4770 c4 -6 11 -8 16 -5 14 9 11 15 -7 15 -8 0 -12 -5 -9 -10z"/>
<path d="M5205 4759 c-18 -6 -18 -8 -3 -14 9 -3 31 -5 48 -3 l33 3 -30 11
c-16 6 -38 7 -48 3z"/>
<path d="M2785 4750 c-3 -5 -20 -10 -37 -10 -17 0 -29 -2 -26 -6 3 -3 40 -2
83 2 47 4 71 10 63 15 -18 12 -76 11 -83 -1z"/>
<path d="M2984 4745 c20 -12 31 -14 39 -6 8 8 7 11 -3 11 -8 0 -26 3 -40 6
-24 5 -24 4 4 -11z"/>
<path d="M4557 4700 c-28 -27 -48 -53 -44 -56 3 -4 20 8 37 25 17 17 35 31 39
31 9 0 41 34 41 43 0 18 -27 2 -73 -43z"/>
<path d="M3070 4720 c8 -5 24 -9 35 -9 l20 0 -20 9 c-11 5 -27 9 -35 9 -13 1
-13 0 0 -9z"/>
<path d="M3170 4676 c0 -2 7 -6 15 -10 8 -3 15 -1 15 4 0 6 -7 10 -15 10 -8 0
-15 -2 -15 -4z"/>
<path d="M3570 4641 c0 -26 26 -47 34 -26 3 8 3 22 0 30 -9 21 -34 19 -34 -4z"/>
<path d="M3178 4638 c12 -6 25 -23 29 -37 7 -28 48 -73 58 -63 3 3 8 -3 11
-15 5 -20 32 -39 41 -30 14 14 -60 97 -86 97 -6 0 -10 3 -9 8 5 18 -24 52 -45
51 l-22 0 23 -11z"/>
<path d="M4521 4624 c-19 -13 -27 -24 -19 -24 8 0 25 11 38 25 29 31 25 30
-19 -1z"/>
<path d="M5105 4611 c-6 -10 25 -31 44 -31 6 0 11 9 11 20 0 15 -7 20 -24 20
-14 0 -27 -4 -31 -9z"/>
<path d="M4605 4580 c-3 -6 -17 -8 -30 -6 -18 3 -32 -5 -58 -33 -43 -48 -94
-84 -107 -76 -5 3 -10 -1 -10 -9 0 -10 -9 -16 -22 -16 -22 1 -22 1 -5 15 19
14 20 45 2 47 -5 1 -19 -17 -31 -38 -24 -46 -48 -54 -75 -25 -21 22 -44 27
-54 12 -3 -6 10 -17 29 -26 39 -19 182 -159 203 -199 8 -14 20 -26 27 -26 8 0
16 -7 20 -15 3 -8 10 -15 15 -15 6 0 33 -13 61 -30 39 -23 63 -30 103 -30 82
0 220 44 240 76 4 7 23 22 43 34 19 12 33 25 30 27 -3 3 1 15 9 26 15 22 5 47
-19 47 -17 0 -76 68 -76 88 0 10 -16 33 -35 52 -19 19 -35 40 -35 47 0 18 -59
53 -91 53 -14 0 -34 7 -45 15 -22 17 -80 20 -89 5z m75 -170 c12 -8 11 -10 -7
-10 -13 0 -23 5 -23 10 0 13 11 13 30 0z"/>
<path d="M4393 4573 c-7 -2 -13 -15 -13 -28 0 -25 15 -34 40 -28 20 5 43 41
35 53 -6 10 -41 12 -62 3z"/>
<path d="M2610 4560 c-12 -8 -12 -10 2 -15 19 -7 38 1 38 16 0 12 -21 11 -40
-1z"/>
<path d="M3056 4561 c-4 -6 -24 -20 -44 -30 -20 -11 -64 -52 -97 -92 -33 -39
-72 -83 -87 -96 -28 -26 -43 -63 -25 -63 6 0 1 -10 -10 -22 -27 -32 -20 -50
30 -71 23 -10 62 -28 87 -40 24 -12 48 -21 52 -19 4 1 8 -2 8 -7 0 -14 83 -20
128 -9 32 8 58 26 98 66 30 30 54 63 54 73 0 10 9 20 19 24 11 3 37 27 60 53
22 26 51 59 65 75 22 24 23 27 6 27 -10 0 -22 5 -25 10 -4 6 -11 8 -16 5 -5
-4 -9 -1 -9 4 0 6 -7 11 -15 11 -8 0 -15 4 -15 10 0 5 -10 8 -22 6 -17 -2 -29
6 -46 30 -12 19 -29 34 -37 34 -8 0 -15 3 -15 8 0 4 -12 8 -27 8 -16 1 -47 5
-69 9 -27 5 -44 3 -48 -4z m44 -181 c0 -5 -9 -10 -20 -10 -11 0 -20 5 -20 10
0 6 9 10 20 10 11 0 20 -4 20 -10z"/>
<path d="M1678 4538 c5 -5 16 -8 23 -6 8 3 3 7 -10 11 -17 4 -21 3 -13 -5z"/>
<path d="M5228 4265 c-13 -13 6 -46 30 -52 26 -6 56 19 49 42 -4 11 -69 20
-79 10z"/>
<path d="M3645 4199 c-22 -5 -44 -14 -49 -19 -6 -6 -18 -10 -28 -10 -10 0 -21
-7 -24 -15 -4 -8 -12 -15 -19 -15 -7 0 -32 -17 -56 -39 -37 -33 -61 -70 -110
-173 -5 -10 -6 -24 -3 -32 3 -8 0 -17 -7 -21 -8 -6 -5 -12 11 -20 23 -12 23
-13 3 -19 -17 -5 -21 -14 -19 -44 3 -42 21 -92 34 -92 5 0 8 -23 6 -50 -3 -28
0 -59 6 -70 12 -23 -32 -112 -64 -126 -15 -7 -20 -17 -18 -36 1 -14 -2 -29 -8
-33 -5 -3 -10 -17 -10 -31 0 -34 -17 -64 -36 -64 -11 0 -13 -6 -9 -19 4 -13
-3 -29 -22 -48 -15 -16 -43 -46 -60 -68 -18 -22 -33 -34 -33 -27 0 6 -9 12
-20 12 -14 0 -22 -11 -31 -42 -6 -24 -13 -49 -15 -55 -6 -21 -38 -15 -85 17
-28 18 -47 26 -53 20 -7 -7 -6 -14 2 -22 7 -7 12 -27 12 -44 0 -22 6 -34 18
-38 9 -3 23 -20 31 -37 19 -43 100 -118 122 -114 12 2 23 -5 30 -18 15 -26 50
-56 67 -57 6 0 12 -6 12 -14 0 -24 84 -86 109 -79 23 6 54 -14 45 -29 -10 -15
17 -38 45 -38 15 0 31 -4 37 -10 14 -14 76 -15 101 -2 13 7 25 25 29 40 17 77
41 119 50 84 7 -23 19 -29 29 -12 9 14 46 12 44 -2 -4 -32 2 -84 11 -98 9 -12
16 -9 45 23 18 22 38 36 43 33 6 -3 12 5 16 17 3 13 21 32 40 42 33 18 36 18
54 2 17 -16 40 -72 49 -121 5 -28 9 -30 53 -31 22 0 45 -6 52 -13 16 -16 28
-15 28 3 0 17 16 20 26 4 3 -6 15 -9 25 -6 10 3 26 -1 36 -9 26 -20 30 -18 37
21 6 28 15 39 45 55 21 10 52 30 68 44 20 17 34 22 44 15 23 -15 28 -11 39 34
18 69 15 66 56 52 46 -15 92 -2 72 22 -11 13 -5 27 13 29 5 1 14 2 19 3 6 0
10 8 10 16 0 18 5 18 31 4 17 -9 21 -6 30 20 11 32 23 39 34 21 11 -17 26 0
19 22 -3 12 0 24 9 31 22 17 38 84 27 113 -14 37 -38 41 -63 11 -32 -37 -76
-56 -127 -53 -34 2 -46 7 -53 24 -6 12 -14 22 -19 22 -4 0 -8 7 -8 16 0 9 -9
27 -20 41 -11 14 -20 32 -20 39 0 8 -7 14 -15 14 -9 0 -15 9 -15 25 0 18 -5
25 -20 25 -11 0 -20 6 -20 13 0 6 -15 24 -34 39 -20 16 -39 44 -46 65 -7 21
-24 49 -38 62 -20 17 -22 22 -8 17 18 -6 18 -5 1 20 -9 15 -12 23 -6 20 16
-10 13 0 -5 19 -13 12 -19 13 -24 4 -4 -6 -13 -8 -20 -4 -9 6 -9 9 1 16 11 7
11 9 1 9 -7 0 -11 4 -7 9 3 5 -4 12 -15 16 -28 9 -25 28 3 22 12 -3 31 1 42 9
19 15 19 15 -6 9 -16 -4 -30 -2 -33 4 -4 6 1 11 11 11 17 1 17 1 1 11 -21 12
-24 31 -4 23 8 -3 17 -1 21 5 3 6 0 11 -8 11 -8 0 -20 7 -27 15 -8 10 -9 15
-2 15 6 0 9 7 6 15 -4 10 0 15 15 15 25 0 28 15 4 25 -17 6 -17 7 0 16 9 6 15
14 13 18 -3 4 2 36 10 72 16 67 12 114 -12 160 -24 48 -177 197 -209 205 -17
4 -40 14 -53 22 -28 18 -228 26 -287 11z m27 -47 c-13 -4 -22 -11 -20 -17 3
-10 -71 -26 -85 -18 -4 2 3 13 15 23 16 13 38 19 68 19 32 -1 38 -3 22 -7z
m-188 -1293 c-3 -5 -10 -7 -15 -3 -5 3 -7 10 -3 15 3 5 10 7 15 3 5 -3 7 -10
3 -15z"/>
<path d="M4578 3623 c7 -3 16 -2 19 1 4 3 -2 6 -13 5 -11 0 -14 -3 -6 -6z"/>
<path d="M4213 3523 c-20 -7 -15 -19 12 -31 14 -6 25 -8 25 -3 0 5 -6 12 -12
14 -10 4 -9 8 2 16 13 10 13 11 0 10 -8 0 -21 -3 -27 -6z"/>
<path d="M4266 3496 c3 -9 11 -16 16 -16 13 0 5 23 -10 28 -7 2 -10 -2 -6 -12z"/>
<path d="M3200 3430 c0 -5 6 -10 14 -10 8 0 18 5 21 10 3 6 -3 10 -14 10 -12
0 -21 -4 -21 -10z"/>
<path d="M3258 3433 c7 -3 16 -2 19 1 4 3 -2 6 -13 5 -11 0 -14 -3 -6 -6z"/>
<path d="M4490 3420 c0 -5 5 -10 10 -10 6 0 10 5 10 10 0 6 -4 10 -10 10 -5 0
-10 -4 -10 -10z"/>
<path d="M4266 3394 c-8 -21 -8 -24 4 -24 6 0 10 7 10 16 0 8 5 12 11 8 8 -4
8 -9 0 -17 -6 -6 -11 -14 -11 -18 0 -11 39 -18 46 -8 3 5 -1 9 -8 9 -10 0 -10
2 1 9 12 8 12 12 -2 25 -20 20 -43 20 -51 0z"/>
<path d="M4720 3370 c8 -5 20 -10 25 -10 6 0 3 5 -5 10 -8 5 -19 10 -25 10 -5
0 -3 -5 5 -10z"/>
<path d="M4300 3325 c0 -10 29 -24 34 -17 3 6 -3 12 -14 15 -11 3 -20 4 -20 2z"/>
<path d="M6494 3096 c22 -18 46 -21 46 -6 0 6 -6 10 -14 10 -8 0 -23 3 -33 6
-16 5 -16 4 1 -10z"/>
<path d="M6525 3010 c-3 -5 -1 -10 4 -10 6 0 11 5 11 10 0 6 -2 10 -4 10 -3 0
-8 -4 -11 -10z"/>
<path d="M6465 2984 c-8 -9 -13 -24 -10 -34 6 -17 -17 -50 -35 -50 -5 0 -7 -7
-4 -15 4 -9 0 -15 -9 -15 -20 0 -27 -20 -15 -43 5 -10 7 -26 3 -36 -7 -24 27
-38 86 -36 75 4 121 44 67 59 -23 6 -23 6 6 31 16 14 35 25 43 25 11 0 11 4 2
23 -7 12 -12 33 -11 47 3 38 -11 51 -61 56 -33 3 -50 0 -62 -12z"/>
<path d="M6345 2770 c-3 -5 1 -10 9 -10 9 0 16 5 16 10 0 6 -4 10 -9 10 -6 0
-13 -4 -16 -10z"/>
<path d="M6366 2723 c-44 -12 -81 -40 -81 -64 0 -16 -8 -25 -25 -29 -32 -8
-32 -27 0 -43 38 -19 37 -44 -2 -50 -18 -2 -41 0 -50 5 -23 11 -47 -1 -87 -48
-24 -27 -31 -42 -27 -60 5 -19 2 -24 -13 -24 -12 0 -23 -11 -30 -30 -5 -16
-15 -30 -20 -30 -6 0 -11 -13 -11 -30 0 -16 -5 -30 -12 -30 -6 0 -8 -3 -4 -7
9 -9 -93 -35 -106 -27 -11 7 -70 -15 -64 -25 2 -3 -4 -24 -15 -45 -10 -22 -19
-45 -19 -52 0 -7 -5 -14 -11 -16 -7 -2 -9 -13 -5 -26 10 -30 30 -28 22 2 -10
41 7 38 51 -10 24 -25 43 -48 43 -50 0 -3 -10 -9 -22 -14 -20 -8 -17 -9 15 -8
20 1 37 5 37 9 0 13 109 79 140 86 25 4 31 10 27 25 -4 13 3 23 24 33 25 14
29 21 30 63 1 26 1 51 0 55 -1 4 15 15 34 23 38 16 58 49 44 75 -14 26 5 73
35 87 15 8 32 27 38 43 9 26 14 29 39 24 16 -4 38 -3 50 0 19 7 20 8 3 26 -24
26 -7 38 61 43 11 0 31 14 44 29 20 24 22 30 10 38 -8 5 -9 9 -4 9 6 0 3 5 -5
10 -21 14 -74 12 -89 -2 -9 -8 -12 -9 -7 -1 7 12 -2 44 -13 42 -3 -1 -15 -4
-25 -6z m74 -80 c0 -5 -62 6 -69 13 -1 1 0 7 3 13 6 9 66 -14 66 -26z m-540
-443 c0 -5 -7 -10 -15 -10 -8 0 -15 5 -15 10 0 6 7 10 15 10 8 0 15 -4 15 -10z"/>
<path d="M4056 2441 c-3 -5 -15 -7 -25 -4 -10 3 -30 -1 -42 -8 -46 -24 -125
-27 -293 -10 -60 6 -112 9 -114 6 -13 -12 49 -44 97 -50 51 -6 108 -23 86 -25
-20 -1 20 -20 44 -20 16 0 22 4 17 15 -4 11 2 15 26 15 26 0 29 -2 18 -15 -7
-8 -16 -12 -21 -9 -5 3 -9 0 -9 -5 0 -6 16 -11 35 -11 27 0 39 7 57 30 12 17
31 30 42 30 26 0 98 40 104 58 4 14 -14 17 -22 3z"/>
<path d="M5820 2044 c0 -8 5 -12 10 -9 6 4 8 11 5 16 -9 14 -15 11 -15 -7z"/>
<path d="M5695 2000 c3 -5 10 -10 16 -10 5 0 9 5 9 10 0 6 -7 10 -16 10 -8 0
-12 -4 -9 -10z"/>
<path d="M5738 1999 c-10 -5 -18 -21 -18 -35 0 -21 -3 -23 -19 -14 -26 14 -31
13 -25 -5 4 -8 12 -15 19 -15 7 0 16 -11 19 -25 4 -14 10 -25 15 -25 4 0 6
-11 3 -25 -4 -23 -3 -24 24 -16 16 5 40 9 54 8 17 -1 25 3 24 13 -3 37 -10 56
-26 74 -10 11 -18 23 -18 28 0 4 -6 8 -14 8 -9 0 -12 7 -9 20 6 22 -3 25 -29
9z m22 -79 c0 -5 -4 -10 -10 -10 -5 0 -10 5 -10 10 0 6 5 10 10 10 6 0 10 -4
10 -10z"/>
<path d="M5665 1801 c-3 -5 -1 -12 4 -15 5 -3 11 1 15 9 6 16 -9 21 -19 6z"/>
<path d="M2217 1663 c-15 -8 -25 -18 -22 -24 10 -15 27 -10 51 16 25 28 14 31
-29 8z"/>
<path d="M5540 1610 c0 -5 5 -10 11 -10 5 0 7 5 4 10 -3 6 -8 10 -11 10 -2 0
-4 -4 -4 -10z"/>
<path d="M2353 1489 c-6 -6 -9 -17 -7 -24 3 -6 -2 -18 -11 -25 -24 -20 -18
-56 16 -87 53 -49 83 -79 123 -128 33 -40 43 -46 65 -40 48 11 66 12 83 4 11
-6 18 -4 21 6 3 7 1 15 -5 17 -6 2 -16 19 -22 38 -8 24 -18 34 -36 36 -71 10
-91 17 -101 35 -7 15 -7 24 1 34 6 7 15 27 20 44 7 27 5 33 -18 49 -22 15
-104 52 -115 52 -2 0 -8 -5 -14 -11z"/>
<path d="M5195 1458 c-3 -13 -7 -42 -9 -65 -3 -42 -3 -43 23 -37 14 4 33 13
42 20 13 12 21 10 52 -12 20 -13 39 -35 43 -49 11 -43 55 -40 69 5 7 22 -30
110 -47 110 -10 0 -10 2 1 9 21 14 -4 22 -34 11 -42 -16 -79 -12 -93 10 -16
27 -40 25 -47 -2z"/>
<path d="M4387 1434 c-8 -8 1 -24 14 -24 5 0 9 7 9 15 0 15 -12 20 -23 9z"/>
<path d="M4232 1352 c-47 -43 -48 -47 -28 -94 22 -52 46 -131 46 -150 0 -10 4
-18 10 -18 12 0 40 -53 40 -76 0 -15 -4 -14 -25 6 -13 13 -27 31 -30 42 -5 15
-10 16 -27 7 -15 -8 -22 -8 -28 1 -18 29 -17 -10 1 -47 11 -22 21 -54 24 -72
3 -28 0 -33 -31 -46 -39 -16 -42 -30 -14 -60 l21 -22 -26 -50 c-14 -28 -25
-59 -25 -69 -1 -23 -23 -54 -38 -54 -7 0 -14 11 -18 26 -9 35 -38 28 -42 -11
-2 -16 -10 -34 -18 -40 -8 -5 -16 -20 -19 -33 -4 -24 -92 -111 -112 -112 -6 0
-15 5 -18 10 -3 6 -13 10 -22 10 -8 0 -28 11 -45 25 -33 28 -48 32 -48 11 0
-13 -20 -26 -41 -26 -5 0 -9 6 -9 14 0 8 -9 21 -20 29 -11 8 -17 17 -14 20 4
3 -5 11 -18 18 -23 10 -24 14 -17 55 5 24 15 57 24 73 8 17 15 40 15 53 0 28
9 42 31 50 9 3 33 36 55 72 29 50 44 66 62 66 35 0 27 34 -19 80 -34 33 -44
38 -60 30 -13 -7 -19 -21 -19 -45 0 -22 -8 -43 -25 -61 -14 -15 -25 -39 -25
-53 0 -41 -11 -71 -26 -71 -8 0 -14 5 -14 10 0 6 -12 15 -26 20 -35 14 -58 -1
-90 -55 -20 -35 -25 -56 -24 -97 4 -98 2 -112 -24 -124 -18 -9 -28 -9 -37 0
-8 8 -13 8 -16 -2 -11 -29 -23 4 -23 61 0 44 3 58 10 47 8 -12 10 -9 10 13 0
15 5 27 11 27 6 0 8 -8 4 -19 -3 -10 -2 -26 1 -36 7 -17 8 -17 21 1 16 21 17
66 2 81 -5 5 -11 21 -13 34 -1 13 -22 43 -45 67 -34 35 -46 41 -57 31 -8 -6
-14 -17 -14 -24 0 -7 -9 -32 -20 -56 -11 -24 -20 -56 -20 -71 0 -23 -4 -28
-25 -28 -14 0 -25 4 -25 9 0 4 -26 11 -57 15 -31 4 -61 11 -67 15 -6 5 -10 33
-8 65 l4 55 54 25 c30 14 70 28 89 32 19 3 35 11 35 16 0 5 7 16 15 24 13 13
13 17 1 30 -8 8 -19 14 -24 14 -6 0 -12 7 -15 14 -7 18 -60 28 -220 43 -53 4
-59 3 -64 -16 -3 -12 -9 -21 -14 -21 -5 0 -16 -14 -25 -31 -12 -25 -21 -30
-40 -26 -13 2 -29 -2 -35 -9 -7 -8 -21 -11 -35 -8 -12 3 -29 2 -36 -2 -7 -5
-22 -10 -32 -11 -24 -4 -70 -49 -62 -61 3 -5 42 -13 86 -16 70 -6 85 -11 103
-33 12 -14 41 -34 64 -45 60 -28 72 -78 18 -78 -41 0 -36 -17 13 -41 26 -13
54 -29 62 -35 8 -6 42 -19 75 -29 33 -9 71 -22 85 -27 14 -6 40 -10 58 -9 31
2 45 -13 20 -21 -7 -2 -62 -5 -123 -7 -75 -2 -117 -7 -132 -17 -35 -22 -27
-35 20 -33 23 0 74 -5 112 -12 39 -7 115 -12 170 -11 74 2 121 -3 179 -18 44
-11 92 -20 107 -20 38 0 112 -25 182 -61 67 -36 110 -36 115 -1 4 28 43 68 92
93 36 19 66 62 55 80 -4 5 -2 9 3 9 5 0 12 10 15 21 4 15 11 20 23 15 9 -3 39
5 68 18 31 16 72 26 106 27 74 3 78 5 77 44 -1 19 1 37 4 39 7 7 133 28 184
31 40 2 40 3 42 45 3 44 23 69 56 70 22 0 72 49 80 78 4 16 -3 30 -25 52 -35
35 -35 73 0 78 32 5 29 44 -8 79 -24 22 -29 34 -24 56 4 17 1 27 -6 27 -7 0
-10 6 -7 14 7 18 -85 76 -120 76 -16 0 -27 7 -30 20 -5 20 -33 27 -47 13 -4
-4 -36 -8 -72 -10 -54 -2 -68 1 -82 17 -9 11 -19 20 -23 20 -3 0 -24 -17 -47
-38z m273 -32 c3 -5 1 -10 -4 -10 -6 0 -11 5 -11 10 0 6 2 10 4 10 3 0 8 -4
11 -10z m-237 -498 c-7 -15 -20 -39 -30 -54 -10 -14 -18 -31 -18 -38 0 -6 -4
-9 -9 -6 -4 3 -7 16 -6 28 1 13 3 28 4 35 2 18 52 74 62 68 4 -3 3 -18 -3 -33z
m-611 -258 c-3 -3 -12 -4 -19 -1 -8 3 -5 6 6 6 11 1 17 -2 13 -5z"/>
<path d="M5126 1381 c-4 -5 -2 -12 3 -16 16 -9 -8 -52 -32 -59 -14 -3 -30 2
-44 16 -30 28 -45 14 -50 -44 -4 -50 -12 -113 -19 -147 -4 -18 -9 -22 -27 -17
-48 14 -56 14 -69 -2 -10 -12 -10 -14 0 -8 7 4 12 1 12 -9 0 -9 9 -30 21 -46
17 -24 27 -29 55 -27 18 1 36 8 38 15 3 8 22 13 49 13 31 0 49 6 62 20 10 11
25 20 33 20 7 0 34 18 59 40 25 22 52 40 59 40 10 0 14 14 14 49 0 40 -4 51
-19 56 -11 3 -22 12 -25 20 -3 8 -15 15 -26 15 -11 0 -20 7 -20 15 0 8 -11 17
-25 21 -14 3 -25 12 -25 19 0 18 -17 28 -24 16z"/>
<path d="M4150 1265 c-14 -36 -9 -70 9 -70 23 0 36 64 17 83 -14 14 -16 13
-26 -13z"/>
<path d="M6030 1151 c0 -11 5 -23 10 -26 6 -3 10 3 10 14 0 11 -4 23 -10 26
-5 3 -10 -3 -10 -14z"/>
<path d="M2680 1148 c-19 -5 -50 -12 -68 -15 -40 -6 -40 -31 0 -51 23 -11 34
-9 82 12 31 14 56 29 56 33 0 10 -22 33 -29 32 -4 -1 -22 -5 -41 -11z"/>
<path d="M4795 1089 c-3 -4 -1 -10 4 -13 13 -8 2 -46 -13 -43 -6 1 -11 -7 -11
-18 0 -16 6 -19 28 -17 16 2 35 -2 43 -9 22 -18 44 -3 44 31 0 16 -4 30 -10
30 -5 0 -10 6 -10 13 0 14 -68 38 -75 26z"/>
<path d="M3462 905 c-2 -26 11 -34 24 -14 3 6 0 17 -8 25 -12 12 -14 10 -16
-11z"/>
<path d="M5960 870 c0 -5 5 -10 11 -10 5 0 7 5 4 10 -3 6 -8 10 -11 10 -2 0
-4 -4 -4 -10z"/>
<path d="M6847 659 c7 -27 23 -34 23 -11 0 11 -6 22 -14 25 -10 4 -12 0 -9
-14z"/>
<path d="M5864 626 c-6 -17 2 -36 17 -36 12 0 12 37 -1 45 -6 3 -13 -1 -16 -9z"/>
<path d="M7032 306 c-13 -31 -8 -46 9 -29 6 6 9 21 7 34 -4 24 -5 23 -16 -5z"/>
<path d="M3970 111 c0 -11 5 -23 10 -26 6 -3 10 3 10 14 0 11 -4 23 -10 26 -5
3 -10 -3 -10 -14z"/>
</g>
</svg>
